HIERARCHY
ROOT root
{
	OFFSET 0.000000 0.000000 0.000000
	CHANNELS 6 Xposition Yposition Zposition Zrotation Yrotation Xrotation
	JOINT lhip
	{
		OFFSET 0.058581 -0.082280 -0.017664
		CHANNELS 3 Zrotation Yrotation Xrotation
		JOINT lknee
		{
			OFFSET 0.043451 -0.386469 0.008037
			CHANNELS 3 Zrotation Yrotation Xrotation
			JOINT lankle
			{
				OFFSET -0.014790 -0.426874 -0.037428
				CHANNELS 3 Zrotation Yrotation Xrotation
				JOINT ltoe
				{
					OFFSET 0.041054 -0.060286 0.122042
					CHANNELS 3 Zrotation Yrotation Xrotation
					End Site
					{
						OFFSET 0.000000 0.000000 0.000000
					}
				}
			}
		}
	}
	JOINT rhip
	{
		OFFSET -0.060310 -0.090513 -0.013543
		CHANNELS 3 Zrotation Yrotation Xrotation
		JOINT rknee
		{
			OFFSET -0.043257 -0.383688 -0.004843
			CHANNELS 3 Zrotation Yrotation Xrotation
			JOINT rankle
			{
				OFFSET 0.019056 -0.420046 -0.034562
				CHANNELS 3 Zrotation Yrotation Xrotation
				JOINT rtoe
				{
					OFFSET -0.034840 -0.062106 0.130323
					CHANNELS 3 Zrotation Yrotation Xrotation
					End Site
					{
						OFFSET 0.000000 0.000000 0.000000
					}
				}
			}
		}
	}
	JOINT lowerback
	{
		OFFSET 0.004439 0.124404 -0.038385
		CHANNELS 3 Zrotation Yrotation Xrotation
		JOINT upperback
		{
			OFFSET 0.004488 0.137956 0.026820
			CHANNELS 3 Zrotation Yrotation Xrotation
			JOINT chest
			{
				OFFSET -0.002265 0.056032 0.002855
				CHANNELS 3 Zrotation Yrotation Xrotation
				JOINT lowerneck
				{
					OFFSET -0.013390 0.211636 -0.033468
					CHANNELS 3 Zrotation Yrotation Xrotation
					JOINT upperneck
					{
						OFFSET 0.010113 0.088937 0.050410
						CHANNELS 3 Zrotation Yrotation Xrotation
						End Site
						{
							OFFSET 0.000000 0.000000 0.000000
						}
					}
				}
				JOINT lclavicle
				{
					OFFSET 0.071702 0.114000 -0.018898
					CHANNELS 3 Zrotation Yrotation Xrotation
					JOINT lshoulder
					{
						OFFSET 0.122921 0.045205 -0.019046
						CHANNELS 3 Zrotation Yrotation Xrotation
						JOINT lelbow
						{
							OFFSET 0.255332 -0.015649 -0.022946
							CHANNELS 3 Zrotation Yrotation Xrotation
							JOINT lwrist
							{
								OFFSET 0.265709 0.012698 -0.007375
								CHANNELS 3 Zrotation Yrotation Xrotation
								End Site
								{
									OFFSET 0.000000 0.000000 0.000000
								}
							}
						}
					}
				}
				JOINT rclavicle
				{
					OFFSET -0.082954 0.112472 -0.023707
					CHANNELS 3 Zrotation Yrotation Xrotation
					JOINT rshoulder
					{
						OFFSET -0.113228 0.046853 -0.008472
						CHANNELS 3 Zrotation Yrotation Xrotation
						JOINT relbow
						{
							OFFSET -0.260127 -0.014369 -0.031269
							CHANNELS 3 Zrotation Yrotation Xrotation
							JOINT rwrist
							{
								OFFSET -0.269108 0.006794 -0.006027
								CHANNELS 3 Zrotation Yrotation Xrotation
								End Site
								{
									OFFSET 0.000000 0.000000 0.000000
								}
							}
						}
					}
				}
			}
		}
	}
}
MOTION
Frames: 12
Frame Time: 0.033333
-0.118569 -0.607763 0.849338 -108.686795 -9.629134 99.594307 27.953480 15.505864 -19.593780 -6.680729 5.681269 38.021567 -11.914230 6.649506 0.284244 0.000000 -0.000000 0.000000 -8.863247 -11.349914 -49.248403 2.105703 -16.248384 69.180478 -7.308149 -8.658267 -33.005086 0.000000 -0.000000 0.000000 -6.795727 -0.740644 36.352780 -3.845015 0.108954 2.244912 -0.924136 -4.235540 -0.084201 -4.666337 10.670584 -6.315968 0.108523 7.554039 -13.578843 -23.186301 2.285912 1.734298 -34.204175 8.384604 -2.889584 57.919169 -69.004981 -42.708628 33.621515 -2.999507 -19.961126 18.475029 4.147984 -3.543752 27.221891 10.607730 -7.715326 -79.902718 61.070587 -82.731038 -28.525617 7.865690 -34.976654 
-0.113082 -0.541041 0.872673 -105.786895 -8.868332 99.252887 25.599277 15.173480 -28.143304 -4.925966 14.606940 50.525165 -7.576138 8.846306 -4.142917 0.000000 -0.000000 0.000000 -6.706951 -10.854451 -46.348088 3.735713 -19.519041 67.324642 -4.666897 -4.595598 -24.956249 0.000000 -0.000000 0.000000 -7.051525 1.634808 36.762867 -1.902280 -1.494355 2.698583 -0.273316 -4.492590 0.113560 -2.276174 10.510061 -5.013055 1.723197 7.309235 -14.906964 -21.985436 0.222953 1.810501 -32.596919 6.811596 -0.107766 55.553967 -72.106458 -39.974220 33.198133 -3.376577 -18.423284 18.402221 2.379900 -4.990608 26.032697 9.757723 -8.393049 -88.135046 57.656886 -90.407518 -28.558018 6.942124 -37.741841 
-0.106855 -0.475400 0.889807 -103.512455 -6.351391 99.853714 22.254635 17.710592 -37.279674 -3.972629 19.386314 61.882934 -4.558742 6.079312 -7.563235 0.000000 -0.000000 0.000000 -4.573815 -11.552133 -45.576206 5.503660 -22.855568 66.810531 3.628277 4.869077 -10.442237 0.000000 -0.000000 0.000000 -6.726515 3.104040 37.567701 0.054056 -2.956122 2.421078 0.741218 -4.047616 -0.186922 0.003900 10.905153 -4.761714 3.535241 7.528783 -16.295718 -21.168496 -1.628026 0.908474 -32.394954 5.658918 1.286994 55.101951 -74.690564 -39.067564 31.848639 -5.297216 -15.806352 18.432543 1.660373 -5.086539 26.414142 9.094901 -9.169612 -90.904307 55.204887 -93.777806 -29.783281 5.326631 -39.576473 
-0.103776 -0.410933 0.897935 -102.138101 -2.999674 99.865057 19.137002 19.967638 -43.417375 -7.541187 20.707183 69.202480 -7.923088 -0.968851 -8.493793 0.000000 -0.000000 0.000000 -3.749038 -11.693643 -44.816688 5.929241 -24.742370 67.300497 12.665728 12.309236 -4.334043 0.000000 -0.000000 0.000000 -5.730999 3.576778 38.980548 1.341307 -3.983881 2.744492 1.774287 -3.410391 -0.906341 1.784447 11.884332 -5.542971 4.344135 8.133355 -17.770427 -22.108622 -3.317403 -0.377822 -32.319534 5.446925 1.956649 65.697793 -75.665754 -49.230914 30.979369 -7.240875 -13.146972 19.459085 2.352866 -5.173760 27.412496 8.891380 -10.637992 -88.978134 54.719407 -93.028440 -28.972330 6.279379 -39.231518 
-0.102883 -0.347919 0.896934 -101.873410 0.031111 98.518437 17.968814 20.408881 -44.476897 -13.847768 20.844860 72.309793 -10.073786 -8.956059 -8.738743 0.000000 -0.000000 0.000000 -4.675673 -10.971105 -44.460002 3.139395 -24.056063 70.473846 6.558920 5.811405 -8.327902 0.000000 -0.000000 0.000000 -5.112228 3.945476 41.926373 1.947349 -3.627624 3.044452 2.698921 -2.883249 -1.770364 2.310307 11.524117 -8.007482 5.293981 9.524937 -18.152729 -23.551745 -4.664030 -1.029118 -31.963893 3.443718 2.192598 85.732707 -75.001192 -69.043289 32.725829 -6.491906 -13.665005 20.898840 3.673267 -4.054412 29.658591 7.624353 -9.996506 -88.231871 53.902575 -92.487152 -27.853766 5.927542 -39.493181 
-0.102957 -0.288936 0.884520 -101.295296 2.587434 97.534187 17.882390 19.117236 -43.549479 -14.615464 18.707044 73.157314 -13.265742 -10.773471 -6.571082 0.000000 -0.000000 0.000000 -8.722530 -11.417570 -45.118810 0.044947 -20.826616 72.141789 2.779197 2.402871 -12.945893 0.000000 -0.000000 0.000000 -3.449066 3.430942 43.774469 1.968845 -2.950732 3.937482 2.856945 -2.199718 -2.201442 2.122297 11.641846 -11.793301 6.162475 8.589634 -18.745007 -25.030146 -6.259678 -2.739759 -31.543907 -0.891001 2.350068 105.842470 -72.928249 -87.337392 33.083863 -6.835793 -13.936974 23.374169 4.905551 -2.272939 30.777433 5.616615 -9.618556 -86.657884 52.938158 -90.963707 -27.868620 5.862126 -39.170862 
-0.103497 -0.230581 0.864036 -101.091421 4.914338 96.818698 19.031357 17.449524 -39.056857 -11.933052 13.668383 70.148269 -4.288254 -3.456148 -22.138800 0.000000 -0.000000 0.000000 -13.444989 -12.990051 -46.219825 0.701788 -15.390052 68.538275 1.236650 -3.201853 -16.177611 0.000000 -0.000000 0.000000 -2.269322 3.119307 45.558949 1.772215 -1.628583 3.459279 3.747281 -1.716022 -1.688160 1.464027 9.977316 -16.380932 6.923804 9.018271 -18.781084 -25.595146 -7.532065 -3.941032 -31.827964 -8.170551 0.129387 120.171073 -71.588143 -98.329834 36.347580 -7.007837 -12.911388 24.900173 5.734094 -0.633536 32.341359 4.359998 -8.670026 -83.071654 51.848231 -87.225094 -27.877171 6.604740 -37.305474 
-0.102447 -0.171211 0.841000 -100.135681 6.072031 97.544023 21.954899 16.961826 -37.949190 -11.846040 9.537788 68.186702 -1.978479 -0.586168 -33.064120 0.000000 -0.000000 0.000000 -18.975888 -16.353237 -47.162917 -0.864266 -11.655912 60.492203 2.131830 -6.070937 -16.813646 0.000000 -0.000000 0.000000 -1.630963 3.485150 46.084278 2.459913 -1.496252 3.133312 5.087127 -1.897490 -1.295901 0.779642 9.978604 -21.187971 7.123780 8.186207 -20.013054 -24.139478 -9.850224 -3.509831 -32.394223 -15.118124 -2.736239 124.166855 -68.370512 -98.097456 39.373590 -7.503085 -11.941426 25.285994 6.224369 0.609439 33.245609 4.168951 -9.045231 -79.435333 51.812070 -81.729441 -26.886797 6.514963 -37.897929 
-0.103417 -0.104821 0.826299 -98.707200 5.550386 97.816049 26.196661 18.470669 -36.460541 -11.687692 7.887180 66.127915 -4.326541 -1.976682 -33.762133 0.000000 -0.000000 0.000000 -24.436939 -20.020254 -45.267125 -2.251273 -8.883580 49.601855 4.189417 -5.822466 -14.883933 0.000000 -0.000000 0.000000 -1.594828 4.289194 47.220737 3.762844 -2.980879 4.025835 6.666767 -2.691114 -2.337880 -1.071057 10.457388 -24.395031 6.761343 7.551734 -22.147018 -21.552745 -12.426967 -2.471762 -31.143022 -18.632996 -6.240165 117.854096 -64.570697 -90.714572 42.591118 -7.900992 -11.254204 24.972263 7.195106 0.725046 32.948344 4.593797 -9.121094 -80.602324 52.119783 -82.283282 -24.145350 6.417297 -37.493102 
-0.110778 -0.032608 0.818333 -98.069268 4.609641 97.723555 31.100570 21.178017 -32.399041 -13.771462 5.314863 61.066901 -7.967942 -4.873410 -31.073700 0.000000 -0.000000 0.000000 -29.320007 -23.467797 -42.692794 -1.204832 -9.866028 43.025069 5.503456 -4.291143 -15.234965 0.000000 -0.000000 0.000000 -1.044069 2.960633 46.748572 4.022798 -4.059312 4.346953 6.546951 -3.079801 -2.760723 -2.849761 11.292911 -24.873442 5.743785 6.842839 -21.301233 -21.025118 -12.337128 -2.486092 -27.738889 -17.309325 -9.159682 105.182716 -65.460212 -80.785763 43.606991 -8.699280 -11.420727 25.068244 7.754845 0.713145 30.006668 5.502239 -9.938486 -83.566139 53.266900 -84.445585 -23.885698 8.249838 -33.492263 
-0.120914 0.046535 0.819872 -99.195330 2.946068 98.426195 34.273833 21.123505 -26.785984 -12.700867 2.406877 53.010917 -12.860352 -5.346779 -24.601299 0.000000 -0.000000 0.000000 -31.274467 -25.768789 -41.249970 -1.533229 -14.894998 42.464265 4.396520 -5.232142 -15.652852 0.000000 -0.000000 0.000000 -0.329878 1.000277 44.155655 2.652943 -3.623003 4.009833 4.852668 -3.301199 -2.908336 -4.915623 12.217849 -22.101894 3.290242 7.543878 -19.646542 -22.151974 -10.790539 -1.372217 -26.423385 -13.356587 -9.563123 88.440909 -67.011189 -66.531333 40.384730 -8.499611 -13.394285 25.097007 7.700735 0.435351 26.205492 6.918344 -11.147610 -85.606630 54.080236 -85.367294 -25.364253 10.687248 -29.411124 
-0.132188 0.137969 0.830307 -102.130691 0.941781 99.024859 35.853186 16.860120 -20.668708 -8.416905 -1.363136 44.662021 -19.716586 -2.800352 -11.782314 0.000000 -0.000000 0.000000 -28.117226 -25.521963 -40.560366 -2.412133 -18.086439 45.395237 3.151352 -7.104878 -14.506416 0.000000 -0.000000 0.000000 -1.601230 0.659934 40.288452 0.696547 -2.548266 5.453531 3.412707 -3.193101 -3.173398 -6.598553 12.544174 -18.748938 0.829019 8.390628 -18.599770 -23.587880 -7.939086 -0.779756 -26.884558 -8.549336 -7.616896 75.649763 -66.662350 -57.257451 37.101750 -7.494146 -16.154702 24.363408 8.321789 -0.345768 23.833631 9.134832 -10.587084 -85.467184 54.132282 -86.128610 -26.682312 11.512910 -26.578535 
